<svg width="246" height="387" viewBox="0 0 246 387" fill="none" xmlns="http://www.w3.org/2000/svg">
<path fill-rule="evenodd" clip-rule="evenodd" d="M166.651 245.765C160.885 251.925 166.643 264.164 145.683 275.422C101.832 298.86 94.262 340.678 57.2818 355.338C56.8481 355.441 107.804 349.839 138.47 314.264C151.26 299.335 159.183 278.426 162.855 266.656C164.095 262.476 167.666 244.534 166.651 245.765Z" fill="#3AC24A"/>
<path fill-rule="evenodd" clip-rule="evenodd" d="M182.379 238.429C175.007 234.346 164.634 243.028 148.498 225.334C114.935 188.469 72.7612 191.701 49.3591 159.232C49.1093 158.882 67.3263 206.916 109.321 227.867C126.93 236.648 148.83 239.185 161.249 239.799C165.467 240.024 183.7 239.098 182.379 238.429Z" fill="#3AC24A"/>
<path fill-rule="evenodd" clip-rule="evenodd" d="M181.796 194.167C162.331 142.506 104.565 134.898 81.2852 102.555C81.1359 102.296 90.9174 137.716 128.687 162.797C154.115 179.605 146.395 203.264 172.912 211.777C181.724 214.68 195.969 209.39 214.136 210.233C224.428 210.745 229.248 209.533 231.723 209.384C240.473 209.01 186.753 207.067 181.796 194.167Z" fill="#3AC24A"/>
<path fill-rule="evenodd" clip-rule="evenodd" d="M289.233 249.774C244.703 282.309 252.805 340.161 227.765 371.387C227.655 371.45 259.013 352.583 273.08 309.471C282.553 280.297 307.331 281.758 308.561 253.751C309.075 244.454 300.153 232.023 296.148 214.269C294.008 204.038 291.46 199.779 290.666 197.372C287.963 188.902 300.242 241.514 289.233 249.774Z" fill="#3AC24A"/>
<path fill-rule="evenodd" clip-rule="evenodd" d="M278.333 201.702C272.79 192.751 259.967 196.574 251.423 166.816C233.273 104.255 192.458 83.2134 182.5 31.7273C182.397 31.2926 181.745 97.729 213.452 146.696C226.744 167.324 246.527 183.053 257.852 190.927C261.785 193.74 279.313 203.408 278.333 201.702Z" fill="#3AC24A"/>
<path fill-rule="evenodd" clip-rule="evenodd" d="M254.514 203.195C248.749 209.356 254.506 221.594 233.547 232.852C189.696 256.29 128.372 347.064 153.159 378.089C153.521 378.373 157.324 322.126 226.312 271.657C242.179 259.939 247.11 235.968 250.697 224.048C251.848 219.97 255.567 201.942 254.514 203.195Z" fill="#3AC24A"/>
<path fill-rule="evenodd" clip-rule="evenodd" d="M133.909 261.628C125.667 260.571 118.313 265.426 96.9614 255.106C51.917 233.648 34.0283 271.656 0.316447 250.206C0.0407085 250.069 15.646 275.834 62.2567 279.375C81.9978 280.986 103.293 275.022 114.893 270.87C118.881 269.498 135.502 261.743 133.909 261.628Z" fill="#3AC24A"/>
<path fill-rule="evenodd" clip-rule="evenodd" d="M369.151 198.014C359.626 189.245 347.466 195.848 325.801 164.943C280.268 100.157 269.118 142.517 237.268 26.9312C237.166 26.4957 222.489 102.545 276.981 150.024C299.809 170.02 327.487 183.546 342.922 190.175C348.298 192.498 370.952 199.69 369.151 198.014Z" fill="#3AC24A"/>
<path fill-rule="evenodd" clip-rule="evenodd" d="M544.953 349.032C519.182 338.307 482.407 145.127 240.757 203.852C192.727 215.571 151.064 271.76 101.501 262.315C103.366 272.408 130.304 267.178 162.423 251.43C186.104 239.682 211.109 219.701 239.564 209.141C272.412 196.976 308.047 199.759 329.143 199.101C350.34 198.534 370.764 202.617 388.034 207.639C420.667 217.106 425.24 218.807 464.064 250.002C496.591 276.244 538.782 357.058 538.782 357.058C546.045 345.877 547.174 350.068 544.953 349.032Z" fill="#14771E"/>
</svg>
