<svg width="391" height="296" viewBox="0 0 391 296" fill="none" xmlns="http://www.w3.org/2000/svg">
<path fill-rule="evenodd" clip-rule="evenodd" d="M127.069 187.623C122.669 192.324 127.062 201.663 111.07 210.254C77.6118 228.141 71.8357 260.053 43.6195 271.24C43.2886 271.319 82.1684 267.043 105.567 239.896C115.326 228.503 121.37 212.547 124.172 203.565C125.119 200.375 127.844 186.683 127.069 187.623Z" fill="#3AC24A"/>
<path fill-rule="evenodd" clip-rule="evenodd" d="M139.07 182.025C133.445 178.909 125.53 185.535 113.218 172.032C87.6092 143.899 55.4303 146.366 37.5744 121.588C37.3839 121.321 51.2835 157.976 83.3258 173.965C96.7617 180.666 113.471 182.601 122.947 183.07C126.166 183.242 140.077 182.535 139.07 182.025Z" fill="#3AC24A"/>
<path fill-rule="evenodd" clip-rule="evenodd" d="M138.625 148.247C123.772 108.824 79.6969 103.018 61.9344 78.3367C61.8205 78.1388 69.2837 105.168 98.1024 124.308C117.504 137.135 111.613 155.19 131.846 161.686C138.569 163.901 149.439 159.864 163.3 160.507C171.153 160.898 174.831 159.973 176.719 159.86C183.395 159.574 142.407 158.092 138.625 148.247Z" fill="#3AC24A"/>
<path fill-rule="evenodd" clip-rule="evenodd" d="M220.599 190.683C186.623 215.51 192.805 259.658 173.699 283.487C173.615 283.536 197.542 269.137 208.275 236.238C215.503 213.975 234.408 215.09 235.347 193.717C235.739 186.622 228.932 177.136 225.876 163.588C224.243 155.781 222.299 152.53 221.693 150.693C219.63 144.23 229 184.379 220.599 190.683Z" fill="#3AC24A"/>
<path fill-rule="evenodd" clip-rule="evenodd" d="M212.283 153.998C208.054 147.167 198.269 150.084 191.75 127.375C177.902 79.6338 146.759 63.5767 139.162 24.2867C139.083 23.9549 138.586 74.6538 162.778 112.022C172.92 127.763 188.015 139.766 196.656 145.775C199.656 147.922 213.031 155.3 212.283 153.998Z" fill="#3AC24A"/>
<path fill-rule="evenodd" clip-rule="evenodd" d="M194.109 155.137C189.71 159.838 194.103 169.177 178.111 177.769C144.653 195.655 97.8621 264.926 116.775 288.601C117.05 288.819 119.952 245.895 172.591 207.381C184.698 198.439 188.46 180.146 191.197 171.051C192.075 167.938 194.913 154.181 194.109 155.137Z" fill="#3AC24A"/>
<path fill-rule="evenodd" clip-rule="evenodd" d="M102.087 199.728C95.7975 198.921 90.1866 202.626 73.8952 194.751C39.5261 178.376 25.8769 207.381 0.154588 191.012C-0.0558025 190.907 11.8511 210.569 47.4153 213.271C62.4779 214.501 78.7261 209.949 87.5768 206.781C90.6201 205.734 103.302 199.816 102.087 199.728Z" fill="#3AC24A"/>
<path fill-rule="evenodd" clip-rule="evenodd" d="M281.577 151.183C274.31 144.491 265.032 149.531 248.501 125.946C213.759 76.5066 205.252 108.833 180.95 20.6267C180.872 20.2944 169.673 78.329 211.251 114.561C228.669 129.82 249.787 140.142 261.565 145.201C265.666 146.974 282.952 152.462 281.577 151.183Z" fill="#3AC24A"/>
<path fill-rule="evenodd" clip-rule="evenodd" d="M313.724 161.602C310.034 152.309 299.536 152.809 294.764 124.446C284.908 64.6939 263.23 90.1271 279.434 0.211905C279.509 -0.24614 244.466 47.2356 266.142 97.8721C275.296 119.28 289.845 137.787 298.208 147.429C301.15 150.779 314.398 163.362 313.724 161.602Z" fill="#3AC24A"/>
<path fill-rule="evenodd" clip-rule="evenodd" d="M292.869 157.618C289.619 164.972 278.876 165.503 275.39 187.673C267.893 233.978 237.784 258.147 235.433 295.168C235.427 295.549 227.612 250.914 247.479 210.305C255.747 193.249 269.759 177.882 277.817 169.739C280.687 167.019 293.517 156.261 292.869 157.618Z" fill="#3AC24A"/>
<path fill-rule="evenodd" clip-rule="evenodd" d="M328.116 168.919C330.234 161.427 326.693 155.858 340.11 135.402C368.319 92.6364 333.331 83.2234 359.529 50.2268C359.83 49.9015 331.886 67.8358 321.195 109.238C316.743 126.723 319.384 144.322 321.642 153.805C322.485 157.166 327.601 170.311 328.116 168.919Z" fill="#3AC24A"/>
<path fill-rule="evenodd" clip-rule="evenodd" d="M344.746 180.521C350.763 178.241 354.096 172.535 372.159 171.989C410.221 170.866 409.094 138.843 439.523 141.504C439.769 141.474 420.259 129.503 387.263 143.423C373.422 149.22 360.987 160.73 354.498 167.548C352.175 169.914 343.638 181.013 344.746 180.521Z" fill="#3AC24A"/>
<path fill-rule="evenodd" clip-rule="evenodd" d="M344.69 268.848C345.837 264.373 349.647 261.522 348.597 248.586C346.526 221.26 369.309 219.448 365.064 197.948C365.084 197.786 375.125 210.87 367.851 235.537C364.74 245.943 357.509 255.72 353.12 260.83C351.61 262.649 344.476 269.652 344.69 268.848Z" fill="#3AC24A"/>
<path fill-rule="evenodd" clip-rule="evenodd" d="M415.715 266.428C396.052 258.243 367.992 110.824 183.612 155.638C146.965 164.581 115.176 207.46 77.3591 200.252C78.7822 207.955 99.3359 203.964 123.843 191.946C141.912 182.981 160.991 167.733 182.702 159.675C207.765 150.391 234.955 152.515 251.051 152.013C267.225 151.58 282.808 154.696 295.985 158.528C320.884 165.753 324.373 167.051 353.996 190.856C378.815 210.882 411.007 272.552 411.007 272.552C416.548 264.02 417.41 267.218 415.715 266.428Z" fill="#14771E"/>
</svg>
