<svg width="21" height="19" viewBox="0 0 21 19" fill="none" xmlns="http://www.w3.org/2000/svg">
<path d="M1.10378 7.85425C0.934823 7.73123 0.862591 7.51452 0.92395 7.31473L1.00387 7.06496C1.0623 6.86756 1.23798 6.72781 1.44345 6.71527L7.82727 6.20573L10.2749 0.321007C10.357 0.114853 10.5631 -0.0144568 10.7844 0.00129377H11.0442C11.2528 -0.00313381 11.4413 0.12523 11.5137 0.321007L13.9713 6.20573L20.3551 6.71527C20.5606 6.72781 20.7363 6.86756 20.7947 7.06496L20.8746 7.31473C20.9426 7.50821 20.8828 7.72355 20.7248 7.85425L15.9094 11.9905L17.388 18.195C17.4367 18.3936 17.362 18.6021 17.1982 18.7245L16.9085 18.8844C16.7395 18.9986 16.518 18.9986 16.349 18.8844L10.9143 15.5873L5.44957 18.9143C5.28058 19.0286 5.05911 19.0286 4.89011 18.9143L4.67032 18.7645C4.50653 18.642 4.4318 18.4335 4.48051 18.2349L5.91912 11.9905L1.10378 7.85425Z" fill="#FFD855"/>
</svg>
