<svg width="406" height="150" viewBox="0 0 406 150" fill="none" xmlns="http://www.w3.org/2000/svg">
<g filter="url(#filter0_d_1_2105)">
<rect x="30" y="15" width="346" height="90" rx="16" fill="white"/>
</g>
<path d="M348.669 33.6688C348.833 33.5047 349.055 33.4126 349.287 33.4126C349.519 33.4126 349.742 33.5047 349.906 33.6688L353 36.7628L356.094 33.6688C356.259 33.5094 356.48 33.4212 356.71 33.4232C356.939 33.4252 357.158 33.5172 357.321 33.6794C357.483 33.8417 357.575 34.0611 357.577 34.2906C357.579 34.52 357.491 34.741 357.331 34.906L354.237 38L357.331 41.094C357.491 41.2591 357.579 41.4801 357.577 41.7095C357.575 41.9389 357.483 42.1584 357.321 42.3206C357.158 42.4829 356.939 42.5749 356.71 42.5769C356.48 42.5789 356.259 42.4907 356.094 42.3313L353 39.2373L349.906 42.3313C349.741 42.4907 349.52 42.5789 349.291 42.5769C349.061 42.5749 348.842 42.4829 348.679 42.3206C348.517 42.1584 348.425 41.9389 348.423 41.7095C348.421 41.4801 348.509 41.2591 348.669 41.094L351.763 38L348.669 34.906C348.505 34.7419 348.413 34.5194 348.413 34.2874C348.413 34.0554 348.505 33.8329 348.669 33.6688Z" fill="#B0B7C3"/>
<path fill-rule="evenodd" clip-rule="evenodd" d="M69.5 40.625C59.6281 40.625 51.625 48.6281 51.625 58.5C51.625 68.3719 59.6281 76.375 69.5 76.375C79.3719 76.375 87.375 68.3719 87.375 58.5C87.375 48.6281 79.3719 40.625 69.5 40.625ZM77.248 55.4775C77.3907 55.3144 77.4993 55.1245 77.5675 54.9188C77.6356 54.7131 77.662 54.4959 77.6449 54.2798C77.6279 54.0638 77.5679 53.8534 77.4683 53.661C77.3688 53.4685 77.2317 53.2979 77.0653 53.1592C76.8988 53.0205 76.7063 52.9164 76.499 52.8532C76.2918 52.79 76.074 52.7689 75.8584 52.7911C75.6429 52.8133 75.434 52.8784 75.244 52.9825C75.0539 53.0867 74.8867 53.2278 74.752 53.3975L67.7645 61.7809L64.1489 58.1636C63.8424 57.8676 63.4319 57.7038 63.0058 57.7075C62.5798 57.7112 62.1722 57.8821 61.8709 58.1834C61.5696 58.4847 61.3987 58.8923 61.395 59.3183C61.3913 59.7444 61.5551 60.1549 61.8511 60.4614L66.7261 65.3364C66.8858 65.4959 67.077 65.6205 67.2874 65.7021C67.4979 65.7837 67.7231 65.8205 67.9486 65.8103C68.1741 65.8001 68.395 65.7429 68.5972 65.6426C68.7994 65.5423 68.9785 65.4009 69.123 65.2275L77.248 55.4775Z" fill="#53B175"/>
<path d="M115.28 41.832V53H113.04V45.736L110.048 53H108.352L105.344 45.736V53H103.104V41.832H105.648L109.2 50.136L112.752 41.832H115.28ZM125.863 44.136V53H123.607V51.88C123.319 52.264 122.94 52.568 122.471 52.792C122.012 53.0053 121.511 53.112 120.967 53.112C120.273 53.112 119.66 52.968 119.127 52.68C118.593 52.3813 118.172 51.9493 117.863 51.384C117.564 50.808 117.415 50.1253 117.415 49.336V44.136H119.655V49.016C119.655 49.72 119.831 50.264 120.183 50.648C120.535 51.0213 121.015 51.208 121.623 51.208C122.241 51.208 122.727 51.0213 123.079 50.648C123.431 50.264 123.607 49.72 123.607 49.016V44.136H125.863ZM131.769 50.936L134.009 44.136H136.393L133.113 53H130.393L127.129 44.136H129.529L131.769 50.936ZM137.075 48.536C137.075 47.64 137.251 46.8453 137.603 46.152C137.966 45.4587 138.451 44.9253 139.059 44.552C139.678 44.1787 140.366 43.992 141.123 43.992C141.784 43.992 142.36 44.1253 142.851 44.392C143.352 44.6587 143.752 44.9947 144.051 45.4V44.136H146.307V53H144.051V51.704C143.763 52.12 143.363 52.4667 142.851 52.744C142.35 53.0107 141.768 53.144 141.107 53.144C140.36 53.144 139.678 52.952 139.059 52.568C138.451 52.184 137.966 51.6453 137.603 50.952C137.251 50.248 137.075 49.4427 137.075 48.536ZM144.051 48.568C144.051 48.024 143.944 47.56 143.731 47.176C143.518 46.7813 143.23 46.4827 142.867 46.28C142.504 46.0667 142.115 45.96 141.699 45.96C141.283 45.96 140.899 46.0613 140.547 46.264C140.195 46.4667 139.907 46.7653 139.683 47.16C139.47 47.544 139.363 48.0027 139.363 48.536C139.363 49.0693 139.47 49.5387 139.683 49.944C139.907 50.3387 140.195 50.6427 140.547 50.856C140.91 51.0693 141.294 51.176 141.699 51.176C142.115 51.176 142.504 51.0747 142.867 50.872C143.23 50.6587 143.518 50.36 143.731 49.976C143.944 49.5813 144.051 49.112 144.051 48.568ZM152.559 45.976H151.007V53H148.735V45.976H147.727V44.136H148.735V43.688C148.735 42.6 149.044 41.8 149.663 41.288C150.281 40.776 151.215 40.536 152.463 40.568V42.456C151.919 42.4453 151.54 42.536 151.327 42.728C151.113 42.92 151.007 43.2667 151.007 43.768V44.136H152.559V45.976ZM158.074 45.976H156.522V53H154.25V45.976H153.242V44.136H154.25V43.688C154.25 42.6 154.56 41.8 155.178 41.288C155.797 40.776 156.73 40.536 157.978 40.568V42.456C157.434 42.4453 157.056 42.536 156.842 42.728C156.629 42.92 156.522 43.2667 156.522 43.768V44.136H158.074V45.976ZM158.95 48.536C158.95 47.64 159.126 46.8453 159.478 46.152C159.841 45.4587 160.326 44.9253 160.934 44.552C161.553 44.1787 162.241 43.992 162.998 43.992C163.659 43.992 164.235 44.1253 164.726 44.392C165.227 44.6587 165.627 44.9947 165.926 45.4V44.136H168.182V53H165.926V51.704C165.638 52.12 165.238 52.4667 164.726 52.744C164.225 53.0107 163.643 53.144 162.982 53.144C162.235 53.144 161.553 52.952 160.934 52.568C160.326 52.184 159.841 51.6453 159.478 50.952C159.126 50.248 158.95 49.4427 158.95 48.536ZM165.926 48.568C165.926 48.024 165.819 47.56 165.606 47.176C165.393 46.7813 165.105 46.4827 164.742 46.28C164.379 46.0667 163.99 45.96 163.574 45.96C163.158 45.96 162.774 46.0613 162.422 46.264C162.07 46.4667 161.782 46.7653 161.558 47.16C161.345 47.544 161.238 48.0027 161.238 48.536C161.238 49.0693 161.345 49.5387 161.558 49.944C161.782 50.3387 162.07 50.6427 162.422 50.856C162.785 51.0693 163.169 51.176 163.574 51.176C163.99 51.176 164.379 51.0747 164.742 50.872C165.105 50.6587 165.393 50.36 165.606 49.976C165.819 49.5813 165.926 49.112 165.926 48.568ZM169.794 48.552C169.794 47.6667 169.975 46.8827 170.338 46.2C170.711 45.5067 171.212 44.968 171.842 44.584C172.471 44.2 173.164 44.008 173.922 44.008C174.551 44.008 175.106 44.1307 175.586 44.376C176.076 44.6107 176.471 44.9147 176.77 45.288V44.136H179.026V57.224H176.77V51.784C176.471 52.168 176.071 52.488 175.57 52.744C175.068 53 174.503 53.128 173.874 53.128C173.127 53.128 172.439 52.936 171.81 52.552C171.191 52.1573 170.7 51.6133 170.338 50.92C169.975 50.2267 169.794 49.4373 169.794 48.552ZM176.77 48.568C176.77 48.024 176.658 47.5547 176.434 47.16C176.21 46.7653 175.916 46.4667 175.554 46.264C175.202 46.0613 174.823 45.96 174.418 45.96C174.023 45.96 173.644 46.0613 173.282 46.264C172.93 46.4667 172.642 46.7653 172.418 47.16C172.194 47.544 172.082 48.008 172.082 48.552C172.082 49.096 172.194 49.5707 172.418 49.976C172.642 50.3707 172.93 50.6693 173.282 50.872C173.644 51.0747 174.023 51.176 174.418 51.176C174.823 51.176 175.202 51.0747 175.554 50.872C175.916 50.6693 176.21 50.3707 176.434 49.976C176.658 49.5813 176.77 49.112 176.77 48.568ZM182.349 43.08C181.955 43.08 181.624 42.9573 181.357 42.712C181.101 42.456 180.973 42.1413 180.973 41.768C180.973 41.3947 181.101 41.0853 181.357 40.84C181.624 40.584 181.955 40.456 182.349 40.456C182.744 40.456 183.069 40.584 183.325 40.84C183.592 41.0853 183.725 41.3947 183.725 41.768C183.725 42.1413 183.592 42.456 183.325 42.712C183.069 42.9573 182.744 43.08 182.349 43.08ZM183.453 44.136V53H181.213V44.136H183.453ZM194.147 44.136L188.659 57.192H186.275L188.195 52.776L184.643 44.136H187.155L189.443 50.328L191.763 44.136H194.147ZM194.778 48.536C194.778 47.64 194.954 46.8453 195.306 46.152C195.669 45.4587 196.154 44.9253 196.762 44.552C197.381 44.1787 198.069 43.992 198.826 43.992C199.487 43.992 200.063 44.1253 200.554 44.392C201.055 44.6587 201.455 44.9947 201.754 45.4V44.136H204.01V53H201.754V51.704C201.466 52.12 201.066 52.4667 200.554 52.744C200.053 53.0107 199.471 53.144 198.81 53.144C198.063 53.144 197.381 52.952 196.762 52.568C196.154 52.184 195.669 51.6453 195.306 50.952C194.954 50.248 194.778 49.4427 194.778 48.536ZM201.754 48.568C201.754 48.024 201.647 47.56 201.434 47.176C201.221 46.7813 200.933 46.4827 200.57 46.28C200.207 46.0667 199.818 45.96 199.402 45.96C198.986 45.96 198.602 46.0613 198.25 46.264C197.898 46.4667 197.61 46.7653 197.386 47.16C197.173 47.544 197.066 48.0027 197.066 48.536C197.066 49.0693 197.173 49.5387 197.386 49.944C197.61 50.3387 197.898 50.6427 198.25 50.856C198.613 51.0693 198.997 51.176 199.402 51.176C199.818 51.176 200.207 51.0747 200.57 50.872C200.933 50.6587 201.221 50.36 201.434 49.976C201.647 49.5813 201.754 49.112 201.754 48.568ZM208.806 45.976V50.264C208.806 50.5627 208.875 50.7813 209.014 50.92C209.163 51.048 209.408 51.112 209.75 51.112H210.79V53H209.382C207.494 53 206.55 52.0827 206.55 50.248V45.976H205.494V44.136H206.55V41.944H208.806V44.136H210.79V45.976H208.806ZM214.641 41.16V53H212.401V41.16H214.641ZM217.99 43.08C217.595 43.08 217.265 42.9573 216.998 42.712C216.742 42.456 216.614 42.1413 216.614 41.768C216.614 41.3947 216.742 41.0853 216.998 40.84C217.265 40.584 217.595 40.456 217.99 40.456C218.385 40.456 218.71 40.584 218.966 40.84C219.233 41.0853 219.366 41.3947 219.366 41.768C219.366 42.1413 219.233 42.456 218.966 42.712C218.71 42.9573 218.385 43.08 217.99 43.08ZM219.094 44.136V53H216.854V44.136H219.094ZM224.203 41.64L223.947 49.368H222.059L221.787 41.64H224.203ZM223.051 53.112C222.646 53.112 222.31 52.9893 222.043 52.744C221.787 52.488 221.659 52.1733 221.659 51.8C221.659 51.4267 221.787 51.1173 222.043 50.872C222.31 50.616 222.646 50.488 223.051 50.488C223.446 50.488 223.771 50.616 224.027 50.872C224.283 51.1173 224.411 51.4267 224.411 51.8C224.411 52.1733 224.283 52.488 224.027 52.744C223.771 52.9893 223.446 53.112 223.051 53.112Z" fill="black"/>
<defs>
<filter id="filter0_d_1_2105" x="0" y="0" width="406" height="150" filterUnits="userSpaceOnUse" color-interpolation-filters="sRGB">
<feFlood flood-opacity="0" result="BackgroundImageFix"/>
<feColorMatrix in="SourceAlpha" type="matrix" values="0 0 0 0 0 0 0 0 0 0 0 0 0 0 0 0 0 0 127 0" result="hardAlpha"/>
<feOffset dy="15"/>
<feGaussianBlur stdDeviation="15"/>
<feComposite in2="hardAlpha" operator="out"/>
<feColorMatrix type="matrix" values="0 0 0 0 0 0 0 0 0 0 0 0 0 0 0 0 0 0 0.1 0"/>
<feBlend mode="normal" in2="BackgroundImageFix" result="effect1_dropShadow_1_2105"/>
<feBlend mode="normal" in="SourceGraphic" in2="effect1_dropShadow_1_2105" result="shape"/>
</filter>
</defs>
</svg>
